# xmcd
#
# Track frame offsets:
#	150
#	11745
#	28327
#	48497
#	67037
#	82735
#	99962
#	118562
#	130567
#	148667
#	166600
#	181009
#	198712
#	218305
#	235725
#
# Disc length: 3362 seconds
#
# Revision: 1
# Processed by: cddbd v1.5.1PL2 Copyright (c) Steve Scherf et al.
# Submitted via: audiograbber 1.83.01
#
DISCID=bc0d200f
DTITLE=Sound Choice - SC8215
DYEAR=1900
DGENRE=Karaoke Country
TTITLE0=Jones, George and Kershaw, Sammy - Never Bit A Bullet Like This
TTITLE1=Overstreet, Paul - Daddy'S Come Around 
TTITLE2=Brooks, Garth - Dixie Chicken
TTITLE3=Gill, Vince - Look At Us
TTITLE4=Brown, Sawyer - Boys And Me, The
TTITLE5=Stone, Doug - I Never Knew Love
TTITLE6=Brooks and Dunn - She Used To Be Mine
TTITLE7=Parton, Dolly and Lynn and Wynette - Silver Threads And Golden Needles
TTITLE8=Mattea, Kathy - Where'Ve You Been
TTITLE9=Diamond Rio - Sawmill Road
TTITLE10=Jackson, Alan - Wanted
TTITLE11=Alabama - Then Again
TTITLE12=Cyrus, Billy Ray - Some Gave All
TTITLE13=Ledoux, Chris - Tougher Than The Rest
TTITLE14=Cyrus, Billy Ray - She'S Not Cryin' Anymore
EXTD=
EXTT0=
EXTT1=
EXTT2=
EXTT3=
EXTT4=
EXTT5=
EXTT6=
EXTT7=
EXTT8=
EXTT9=
EXTT10=
EXTT11=
EXTT12=
EXTT13=
EXTT14=
PLAYORDER=
